<svg version="1.1" id="Layer_1" xmlns="http://www.w3.org/2000/svg" xmlns:xlink="http://www.w3.org/1999/xlink" x="0px" y="0px" preserveAspectRatio="xMidYMin" height="50px" viewBox="0 0 557.5 136.5" enable-background="new 0 0 557.5 136.5" xml:space="preserve">
<path fill="#326DE6" d="M124.081,87.364l-26.273,32.177c-2.362,2.952-5.609,4.723-9.446,4.723H46.738
            c-3.542,0-7.085-2.066-9.446-4.723L11.018,87.364c-2.066-2.657-2.952-6.79-2.066-10.332l8.856-40.148
            c0.59-3.247,3.247-6.79,6.79-7.97l37.491-18.007c1.476-0.59,3.247-1.476,5.018-1.476c1.771,0,3.542,0.59,5.314,1.476l37.491,18.007
            c3.247,1.476,5.904,4.723,6.79,7.97l8.856,40.148C127.328,80.575,126.148,84.707,124.081,87.364z"></path>
<path fill="#FFFFFF" d="M128.804,77.623l-9.446-42.214c-0.59-3.542-3.542-7.085-7.085-8.266L73.011,8.25
            c-1.771-0.59-3.838-1.476-5.609-1.476c-1.771,0-3.838,0.59-5.314,1.476L22.827,27.143c-3.542,1.476-6.199,4.723-7.085,8.266
            L6.295,77.623c-1.181,3.838,0,7.97,2.066,10.923l27.454,33.653c2.362,2.657,5.904,4.723,9.742,4.723h43.395
            c3.838,0,7.38-1.771,9.742-4.723l27.454-33.653C128.804,85.593,130.28,81.165,128.804,77.623z M122.605,85.003l-27.159,33.653
            c-1.476,2.066-3.542,2.657-5.904,2.657H46.148c-2.066,0-4.428-1.181-5.904-2.657L13.085,85.003
            c-1.476-1.771-1.771-4.133-1.476-6.199l9.742-42.509c0.295-2.066,2.066-3.838,3.838-4.723L64.45,12.678
            c1.181-0.295,2.066-0.295,3.247-0.295s2.066,0,3.247,0.59l39.262,18.893c2.066,1.181,3.542,2.657,4.133,4.723l9.742,42.214
            C124.376,80.87,123.786,83.527,122.605,85.003z"></path>
<path fill="#FFFFFF" d="M106.959,75.556L106.959,75.556L106.959,75.556L106.959,75.556
            C106.959,75.556,106.664,75.556,106.959,75.556C106.664,75.556,106.664,75.556,106.959,75.556
            C106.664,75.261,106.664,75.261,106.959,75.556c-0.59,0-0.59-0.295-0.886-0.295c-0.59,0-1.181,0-1.476-0.295
            c-0.295,0-0.59,0-0.886,0l0,0c-1.476-0.295-2.952-0.295-4.133-0.886c-0.59-0.295-0.886-0.59-0.886-0.886c0,0,0,0,0-0.295l0,0l0,0
            l0,0l0,0l0,0l-1.181-0.295c0.59-3.542,0.295-7.085-0.59-10.923s-2.362-6.79-4.133-10.037l0.886-0.886l0,0l0,0l0,0l0,0l0,0l0,0
            c0,0,0,0,0-0.295c0-0.295,0-0.886,0.59-1.181c0.886-0.886,2.066-1.476,3.542-2.362l0,0c0.295,0,0.59-0.295,0.59-0.295
            c0.59-0.295,0.886-0.59,1.476-0.886l0.295-0.295c0,0,0,0,0.295-0.295l0,0l0,0c1.181-0.886,1.476-2.362,0.59-3.542
            c-0.59-0.59-1.181-0.886-1.771-0.886c-0.59,0-1.181,0.295-1.476,0.59l0,0l0,0l0,0l0,0l0,0c0,0,0,0-0.295,0l-0.295,0.295
            c-0.59,0.295-0.886,0.886-1.181,1.181s-0.295,0.295-0.59,0.59l0,0c-1.181,1.181-2.066,2.066-3.247,2.952
            c-0.295,0.295-0.59,0.295-0.886,0.295c-0.295,0-0.295,0-0.59,0c0,0,0,0-0.295,0l0,0l0,0l0,0l0,0l0,0l-0.886,0.59
            c-1.181-1.181-2.066-2.066-3.247-2.952c-4.428-3.838-10.332-5.904-16.236-6.494v-0.59l0,0l0,0l0,0l0,0l0,0l0,0
            c-0.295-0.295-0.59-0.59-0.59-1.181c0-1.476,0-2.657,0.295-4.133l0,0c0-0.295,0-0.59,0-0.886c0.295-0.295,0.295-0.59,0.295-1.181
            c0,0,0-0.295,0-0.59v-0.295l0,0l0,0l0,0l0,0l0,0c0-1.476-1.181-2.657-2.362-2.657c-0.59,0-1.476,0.295-1.476,0.886
            c-0.59,0.59-0.886,1.181-0.886,1.771l0,0l0,0l0,0l0,0l0,0c0,0,0,0,0,0.295c0,0.295,0,0.295,0,0.59c0,0.59,0,1.181,0.295,1.476
            c0,0.295,0,0.59,0,0.886l0,0c0.295,1.476,0.295,2.952,0.295,4.133c0,0.59-0.295,0.886-0.59,1.181l0,0l0,0l0,0l0,0l0,0l0,0v1.181
            c-1.476,0-2.952,0.295-4.133,0.59c-5.904,1.476-11.218,4.133-15.055,8.856l-0.886-0.59l0,0l0,0l0,0l0,0l0,0l0,0c0,0,0,0-0.295,0
            c-0.295,0-0.295,0-0.59,0c-0.295,0-0.59,0-0.886-0.295c-1.181-0.886-2.066-1.476-3.247-2.952l0,0
            c-0.295-0.295-0.295-0.295-0.59-0.59c-0.295-0.295-0.59-0.886-1.181-1.181l-0.295-0.295c0,0,0,0-0.295-0.295l0,0l0,0
            c-0.59-0.295-1.181-0.59-1.476-0.59c-0.886,0-1.476,0.295-1.771,0.886c-0.886,1.181-0.59,2.657,0.59,3.542l0,0l0,0l0,0l0,0l0,0
            l0.295,0.295c0.59,0.295,0.886,0.59,1.476,0.886c0.295,0,0.59,0.295,0.886,0.295l0,0c1.476,0.886,2.657,1.476,3.542,2.362
            c0.295,0.295,0.295,0.886,0.59,1.181c0,0,0,0,0,0.295l0,0l0,0l0,0l0,0l0,0L42.9,51.94c-0.295,0.295-0.295,0.59-0.59,0.59
            c-4.133,6.199-5.314,13.284-4.133,20.664l-1.181,0.59l0,0l0,0l0,0l0,0l0,0l0,0c0,0,0,0,0,0.295c-0.295,0.295-0.295,0.59-0.886,0.886
            c-1.181,0.295-2.657,0.59-4.133,0.886l0,0c-0.295,0-0.59,0-0.886,0c-0.59,0-1.181,0-1.476,0.295c0,0-0.295,0-0.59,0h-0.295l0,0l0,0
            l0,0l0,0l0,0c-1.476,0.295-2.066,1.476-1.771,2.952c0.295,1.181,1.476,1.771,2.362,1.771c0.295,0,0.295,0,0.59,0l0,0l0,0l0,0l0,0
            l0,0c0,0,0,0,0.295,0s0.295,0,0.59,0c0.59-0.295,1.181-0.295,1.476-0.59c0.295,0,0.59-0.295,0.886-0.295l0,0
            c1.476-0.59,2.657-1.181,4.133-1.181c0,0,0,0,0.295,0c0.59,0,0.886,0.295,1.181,0.295c0,0,0,0,0.295,0l0,0l0,0l0,0l0,0l0,0
            l1.181-0.295c1.771,5.609,5.314,10.923,10.037,14.76c1.181,0.886,2.066,1.476,3.247,2.362l-0.59,1.181l0,0l0,0l0,0l0,0l0,0
            c0,0,0,0,0,0.295c0.295,0.295,0.295,0.886,0,1.476c-0.59,1.181-1.181,2.362-2.066,3.838l0,0c-0.295,0.295-0.295,0.59-0.59,0.59
            c-0.295,0.295-0.59,0.886-0.886,1.476c0,0,0,0.295-0.295,0.59c0,0,0,0,0,0.295l0,0l0,0l0,0l0,0l0,0
            c-0.59,1.476-0.295,2.657,1.181,3.542c0.295,0.295,0.59,0.295,1.181,0.295c1.181,0,1.771-0.59,2.362-1.476l0,0l0,0l0,0l0,0l0,0
            c0,0,0,0,0-0.295s0.295-0.295,0.295-0.59c0.295-0.59,0.295-1.181,0.59-1.476c0-0.295,0-0.59,0.295-0.886l0,0
            c0.59-1.476,1.181-2.952,1.476-4.133c0.295-0.59,0.59-0.59,1.181-0.59c0,0,0,0,0.295,0l0,0l0,0l0,0l0,0l0,0l0.59-1.181
            c3.542,1.476,7.085,2.066,10.923,2.066c2.066,0,4.428-0.295,6.79-0.886c1.476-0.295,2.657-0.886,4.133-1.181l0.59,0.886l0,0l0,0l0,0
            l0,0l0,0l0,0c0,0,0,0,0.295,0s0.886,0.295,1.181,0.59c0.59,1.181,1.181,2.362,1.476,4.133l0,0c0,0.295,0.295,0.59,0.295,0.886
            c0,0.59,0.295,0.886,0.59,1.476c0,0,0,0.295,0.295,0.59c0,0,0,0,0,0.295l0,0l0,0l0,0l0,0l0,0c0.59,0.886,1.476,1.476,2.362,1.476
            c0.295,0,0.59,0,1.181-0.295c0.59-0.295,1.181-0.886,1.181-1.476c0.295-0.59,0-1.476-0.295-1.771l0,0l0,0l0,0l0,0l0,0
            c0,0,0,0,0-0.295s-0.295-0.295-0.295-0.59c-0.295-0.59-0.59-0.886-0.886-1.476c-0.295-0.295-0.295-0.59-0.59-0.59l0,0
            c-0.886-1.476-1.476-2.362-2.066-3.838c-0.295-0.59,0-0.886,0-1.476c0,0,0,0,0-0.295l0,0l0,0l0,0l0,0l0,0L85.41,95.63
            c4.133-2.362,7.675-5.904,10.037-9.742c1.476-2.066,2.362-4.428,3.247-6.79l1.181,0.295l0,0l0,0l0,0l0,0l0,0l0,0c0,0,0,0,0.295,0
            c0.295-0.295,0.59-0.295,1.181-0.295l0,0c1.476,0.295,2.657,0.59,4.133,1.181l0,0c0.295,0,0.59,0.295,0.886,0.295
            c0.59,0.295,0.886,0.295,1.476,0.59c0,0,0.295,0,0.59,0h0.295l0,0l0,0c0.295,0,0.295,0,0.59,0c1.181,0,2.066-0.886,2.362-1.771
            C109.321,77.032,108.435,75.851,106.959,75.556z M70.945,71.423l-3.542,1.476l-3.542-1.476l-0.886-3.542l2.362-2.952h3.838
            l2.362,2.952L70.945,71.423z M91.314,63.453c0.59,2.657,0.886,5.314,0.59,7.675l-12.103-3.247l0,0
            c-1.181-0.295-1.476-1.476-1.476-2.362c0-0.295,0.295-0.59,0.59-0.886l9.446-8.561C89.838,58.434,90.723,60.796,91.314,63.453z
             M84.524,51.645L74.487,58.73c-0.886,0.59-2.066,0.295-2.657-0.59c-0.295-0.295-0.295-0.59-0.295-0.886l-0.886-12.399
            C76.258,45.445,80.982,47.807,84.524,51.645z M62.384,45.15c0.886-0.295,1.476-0.295,2.362-0.59L63.86,56.958l0,0
            c0,1.181-1.181,1.771-2.066,1.771c-0.295,0-0.886,0-1.181-0.295L50.28,51.349C53.823,48.397,57.661,46.036,62.384,45.15z
             M46.738,56.073l9.446,8.266l0,0c0.886,0.886,1.181,1.771,0.295,2.952c-0.295,0.295-0.59,0.59-0.886,0.59l-12.103,3.542
            C42.9,66.11,44.081,60.796,46.738,56.073z M44.967,77.032l12.399-2.066c1.181,0,1.771,0.59,2.066,1.476c0,0.59,0,0.886,0,1.476l0,0
            l-4.723,11.513C50.28,86.479,46.738,82.051,44.967,77.032z M73.306,92.678c-1.771,0.59-3.542,0.59-5.314,0.59
            c-2.657,0-5.314-0.59-7.675-1.476l6.199-11.218c0.59-0.886,1.476-1.181,2.362-0.59c0.59,0.295,0.886,0.59,0.886,0.886l0,0
            l5.904,10.627C74.782,92.383,73.897,92.383,73.306,92.678z M88.066,81.755c-1.771,3.247-4.428,5.609-7.38,7.38l-4.723-11.808
            c-0.295-1.181,0.295-1.771,1.181-2.362c0.295-0.295,0.886-0.295,1.181-0.295l12.399,2.066
            C90.133,78.803,89.247,80.279,88.066,81.755z"></path>
<path id="path254" d="M178.989,69.652c0.886-1.181,1.771-2.066,2.952-3.542c1.181-1.476,1.771-2.362,2.657-3.838
            c0.886-1.476,1.771-2.657,2.657-3.838c0.886-1.476,1.476-2.362,2.066-3.542h11.513c-0.886,1.181-1.771,2.362-3.247,4.133
            c-1.181,1.476-2.362,2.952-3.838,4.133c-1.476,1.476-2.657,2.952-3.838,4.133c-1.476,1.476-2.362,2.657-3.542,3.838
            c1.476,1.476,2.657,2.657,4.133,4.428c1.476,1.771,2.952,3.542,4.428,5.314c1.476,1.771,2.657,3.838,4.133,5.609
            c1.476,1.771,2.066,3.542,2.952,5.018h-10.923c-0.59-1.476-1.476-2.657-2.362-4.133c-1.181-1.476-2.066-3.247-3.247-4.723
            c-1.181-1.476-2.362-3.247-3.542-4.428c-1.181-1.476-2.066-2.657-3.247-3.542v17.417h-9.742V39.541l9.742-1.476L178.989,69.652
            L178.989,69.652z"></path>
<path id="path256" d="M237.439,90.316c-1.771,0.59-4.133,0.886-6.494,1.476s-5.314,0.886-8.266,0.886
            c-2.952,0-5.314-0.59-7.38-1.476c-1.771-0.886-3.542-2.066-4.428-3.542c-1.181-1.476-1.771-3.247-2.362-5.314
            c-0.59-2.066-0.59-4.133-0.59-6.79V55.187h9.742v19.188c0,3.542,0.59,5.904,1.476,7.38c0.886,1.476,2.362,2.362,4.723,2.362
            c1.476,0,2.952,0,4.133-0.295V55.187h9.742v35.129H237.439z"></path>
<path id="path258" d="M269.026,73.49c0-3.542-0.59-6.199-1.476-7.675c-1.181-1.771-2.952-2.657-5.018-2.657
            c-1.181,0-2.066,0.295-2.952,0.59c-1.181,0.295-1.771,0.59-2.657,1.181v19.483c0.886,0.295,1.476,0.295,2.362,0.295
            c0.886,0,1.476,0,2.066,0c2.362,0,4.428-0.886,5.904-2.362C268.435,79.984,269.026,77.327,269.026,73.49L269.026,73.49z
             M278.768,73.49c0,2.952-0.295,5.609-1.181,7.97c-0.886,2.362-1.771,4.133-3.542,6.199c-1.476,1.476-3.542,2.952-5.609,3.838
            c-2.066,0.886-4.428,1.476-7.38,1.476c-2.362,0-5.018-0.295-7.675-0.59s-4.723-0.886-6.494-1.476V39.541l9.742-1.476v18.007
            c1.476-0.59,2.657-1.181,4.133-1.476c1.476-0.295,2.362-0.295,3.838-0.295c2.362,0,4.428,0.59,6.494,1.476
            c1.771,0.886,3.247,2.066,4.428,4.133c1.476,1.476,2.066,3.838,2.657,6.199C278.472,68.176,278.768,70.833,278.768,73.49"></path>
<path id="path260" d="M283.491,73.785c0-3.247,0.59-6.199,1.476-8.561c1.181-2.362,2.362-4.428,4.133-6.199
            c1.476-1.476,3.542-2.952,5.609-3.838c2.066-0.886,4.133-1.476,6.494-1.476c5.314,0,9.742,1.476,12.398,4.723
            c2.657,3.247,4.133,7.675,4.133,13.875c0,0.59,0,1.476,0,1.771c0,0.886,0,1.476,0,1.476h-23.616c0,2.362,1.181,4.133,2.952,5.609
            c1.771,1.476,4.428,2.066,7.675,2.066c1.771,0,3.838-0.295,5.609-0.59c1.771-0.59,3.247-0.886,4.133-1.476l1.476,9.151
            c-1.476,0.59-3.542,1.181-5.314,1.476s-4.133,0.59-6.494,0.59c-3.247,0-5.904-0.59-8.266-1.476
            c-2.362-0.886-4.428-1.771-6.494-3.542c-1.476-1.476-2.952-3.542-4.133-5.904C283.786,79.394,283.491,76.737,283.491,73.785
            L283.491,73.785z M307.993,69.947c0-1.181,0-1.771-0.295-2.952c-0.295-0.886-0.886-1.476-1.476-2.362
            c-0.59-0.886-1.181-1.476-2.066-2.066c-0.886-0.59-1.771-0.59-3.247-0.59s-2.362,0.295-3.247,0.59
            c-0.886,0.59-1.476,1.181-2.066,1.476c-0.59,0.886-1.181,1.476-1.476,2.362c-0.295,0.886-0.59,1.771-0.59,2.952L307.993,69.947
            L307.993,69.947z"></path>
<path id="path262" d="M353.749,64.929c-0.59-0.295-1.476-0.295-2.066-0.59c-0.886-0.295-1.771-0.295-2.657-0.59
            c-0.886,0-1.476-0.295-2.657-0.295c-0.886,0-1.476,0-2.066,0c-1.476,0-2.657,0-4.133,0.295c-1.476,0-2.657,0.295-4.133,0.886v27.159
            h-9.742V57.549c2.657-0.886,5.018-1.476,7.675-2.066s5.904-0.886,9.447-0.886c0.59,0,1.476,0,2.066,0
            c1.181,0,1.771,0.295,2.952,0.295s2.066,0.295,3.247,0.59c1.181,0.295,2.066,0.59,2.952,0.886L353.749,64.929L353.749,64.929z"></path>
<path id="path264" d="M363.491,56.368c1.771-0.59,3.838-0.886,6.494-1.476c2.362-0.59,5.314-0.59,8.266-0.59
            c2.952,0,5.314,0.59,7.085,1.476c1.771,0.886,3.542,1.771,4.428,3.542c1.181,1.476,2.066,3.247,2.657,5.314
            c0.59,2.066,0.886,4.133,0.886,6.79v20.664h-9.742V72.604c0-3.542-0.295-5.904-1.181-7.38c-0.59-1.771-2.362-2.362-4.723-2.362
            c-0.886,0-1.476,0-2.066,0c-0.59,0-1.476,0-2.066,0.295v28.635h-9.742L363.491,56.368L363.491,56.368z"></path>
<path id="path266" d="M399.801,73.785c0-3.247,0.59-6.199,1.476-8.561c1.181-2.362,2.362-4.428,4.133-6.199
            c1.476-1.476,3.542-2.952,5.609-3.838c2.066-0.886,4.133-1.476,6.494-1.476c5.314,0,9.742,1.476,12.399,4.723
            c2.362,3.838,4.133,8.266,4.133,14.465c0,0.59,0,1.476,0,1.771c0,0.886,0,1.476,0,1.476h-23.616c0,2.362,1.181,4.133,2.952,5.609
            c1.771,1.476,4.428,2.066,7.675,2.066c1.771,0,3.838-0.295,5.609-0.59c1.771-0.59,3.247-0.886,4.133-1.476l1.476,8.266
            c-1.476,0.59-3.542,1.181-5.314,1.476s-4.133,0.59-6.494,0.59c-3.247,0-5.904-0.59-8.266-1.476
            c-2.362-0.886-4.428-1.771-6.494-3.542c-1.476-1.476-2.952-3.542-4.133-5.904C400.391,79.394,399.801,76.737,399.801,73.785
            L399.801,73.785z M424.303,69.947c0-1.181,0-1.771-0.295-2.952c-0.295-0.886-0.886-1.476-1.476-2.362
            c-0.295-0.886-1.181-1.476-1.771-2.066c-0.886-0.59-1.771-0.59-3.247-0.59s-2.362,0.295-3.247,0.59
            c-0.886,0.59-1.476,1.181-2.066,1.771c-0.59,0.886-1.181,1.476-1.476,2.362c-0.295,0.886-0.59,1.771-0.59,2.952L424.303,69.947
            L424.303,69.947z"></path>
<path id="path268" d="M447.328,63.158h-8.266v-7.97h8.266v-9.151l9.742-1.476v10.627h15.055v7.97H457.07v14.76
            c0,1.476,0,2.362,0.295,3.247c0.295,0.886,0.59,1.476,1.181,1.771c0.59,0.59,1.181,0.886,1.476,0.886
            c0.886,0.295,1.476,0.295,2.066,0.295c0.886,0,1.476,0,2.362,0c0.886,0,1.476-0.295,2.066-0.295c0.886,0,1.476-0.295,2.066-0.59
            c0.886-0.295,1.476-0.59,2.362-1.181l1.476,8.266c-1.771,0.886-3.838,1.476-5.609,1.476c-2.066,0.295-4.133,0.59-5.904,0.59
            c-2.066,0-4.133-0.295-5.904-0.59c-1.476-0.295-3.247-1.181-4.133-2.066c-1.181-1.181-2.066-2.362-2.657-4.133
            s-0.886-4.133-0.886-7.38V63.158L447.328,63.158z"></path>
<path id="path270" d="M477.439,73.785c0-3.247,0.59-6.199,1.476-8.561c1.181-2.362,2.362-4.428,4.133-6.199
            c1.476-1.476,3.542-2.952,5.609-3.838c2.066-0.886,4.133-1.476,6.494-1.476c5.314,0,9.742,1.476,12.399,4.723
            c2.657,3.247,4.133,7.675,4.133,13.875c0,0.59,0,1.476,0,1.771c0,0.886,0,1.476,0,1.476h-23.616c0,2.362,1.181,4.133,2.952,5.609
            s4.428,2.066,7.675,2.066c1.771,0,3.838-0.295,5.609-0.59c1.771-0.59,3.247-0.886,4.133-1.476l1.476,8.266
            c-1.476,0.59-3.542,1.181-5.314,1.476s-4.133,0.59-6.494,0.59c-3.247,0-5.904-0.59-8.266-1.476
            c-2.362-0.886-4.428-1.771-6.494-3.542c-1.476-1.476-2.952-3.542-4.133-5.904C478.03,79.394,477.439,76.737,477.439,73.785
            L477.439,73.785z M501.941,69.947c0-1.181,0-1.771-0.295-2.952c-0.295-0.886-0.886-1.476-1.476-2.362
            c-0.295-0.886-1.181-1.476-1.771-2.066c-0.886-0.59-1.771-0.59-3.247-0.59s-2.362,0.295-3.247,0.59
            c-0.886,0.59-1.771,1.181-2.066,1.771c-0.59,0.886-1.181,1.476-1.476,2.362c-0.295,0.886-0.59,1.771-0.59,2.952L501.941,69.947
            L501.941,69.947z"></path>
<path id="path272" d="M531.461,84.707c2.362,0,4.133-0.295,5.314-0.59s1.771-1.181,1.771-2.066c0-0.886-0.295-1.476-0.59-1.476
            c-0.295-0.59-0.886-0.886-1.476-1.476c-0.886-0.295-1.476-0.59-2.362-1.181c-0.886-0.295-1.771-0.59-2.952-0.886
            c-1.476-0.59-2.952-0.886-4.133-1.476c-1.476-0.59-2.657-1.476-4.133-2.066c-1.181-0.886-2.066-1.771-2.952-3.247
            c-0.886-1.476-1.181-2.952-1.181-4.723c0-1.476,0.295-2.952,0.886-4.133c0.59-1.181,1.476-2.657,2.657-3.838
            c1.181-1.181,2.952-1.771,4.723-2.362c2.066-0.59,4.428-0.886,7.38-0.886c2.362,0,4.428,0.295,6.79,0.59
            c2.066,0.295,3.838,0.886,5.314,1.476l-1.476,7.97c-0.886-0.295-2.066-0.886-4.133-1.476c-1.771-0.59-4.133-0.886-6.494-0.886
            s-4.133,0.295-4.723,0.886c-0.886,0.59-1.476,1.476-1.476,1.771s0.295,1.476,0.59,2.066c0.295,0.59,0.886,0.886,1.476,1.476
            c0.59,0.295,1.476,0.886,2.066,1.181c0.886,0,2.066,0.295,2.657,0.886c1.476,0.59,2.952,1.181,4.133,1.476
            c1.476,0.59,2.952,1.476,4.133,2.066c1.476,0.886,2.066,1.771,2.952,3.247c0.886,1.476,1.181,2.952,1.181,4.723
            c0,1.476-0.295,2.952-0.886,4.133c-0.59,1.476-1.476,2.362-2.952,3.542s-2.952,1.771-5.018,2.362s-4.723,0.886-7.675,0.886
            c-3.247,0-5.904-0.295-7.97-1.181c-2.066-0.886-4.133-1.476-5.314-1.771l1.476-7.97c1.771,0.886,3.838,1.476,5.904,2.066
            C527.328,84.412,529.395,84.707,531.461,84.707"></path>
</svg>